<svg
  width="12"
  height="12"
  viewBox="0 0 12 12"
  fill="none"
  xmlns="http://www.w3.org/2000/svg"
>
  <style>
    @media (prefers-color-scheme: dark) {
      .t {
        fill: white;
      }
      .d {
        fill: #6a6a6a;
      }
    }
  </style>
  <path
    d="M1 2C1 1.44772 1.44772 1 2 1H4.5V4H2C1.44772 4 1 3.55228 1 3V2Z"
    class="t"
    fill="black"
  />
  <rect x="1" y="5" width="2.5" height="5" rx="1" class="d" fill="#A1A1AA" />
  <path
    d="M4.5 1H7.5V8C7.5 8.55228 7.05228 9 6.5 9H5.5C4.94772 9 4.5 8.55228 4.5 8V1Z"
    class="t"
    fill="black"
  />
  <rect x="4.5" y="10" width="3" height="1" rx="0.5" class="d" fill="#A1A1AA" />
  <path
    d="M7.5 1H10C10.5523 1 11 1.44772 11 2V3C11 3.55228 10.5523 4 10 4H7.5V1Z"
    class="t"
    fill="black"
  />
  <rect x="8.5" y="5" width="2.5" height="3" rx="1" class="d" fill="#A1A1AA" />
</svg>
