<svg width="12" height="12" viewBox="0 0 12 12" fill="none" xmlns="http://www.w3.org/2000/svg">
<rect width="12" height="12" rx="1" fill="black"/>
<path d="M2 3C2 2.44772 2.44772 2 3 2H5V4H3C2.44772 4 2 3.55228 2 3V3Z" fill="white"/>
<rect x="2" y="5" width="2" height="4" rx="1" fill="#6A6A6A"/>
<path d="M5 2H7V7C7 7.55228 6.55228 8 6 8V8C5.44772 8 5 7.55228 5 7V2Z" fill="white"/>
<rect x="5" y="9" width="2" height="1" rx="0.5" fill="#6A6A6A"/>
<path d="M7 2H9C9.55228 2 10 2.44772 10 3V3C10 3.55228 9.55228 4 9 4H7V2Z" fill="white"/>
<rect x="8" y="5" width="2" height="2" rx="1" fill="#6A6A6A"/>
</svg>
